<svg width="13" height="13" viewBox="0 0 13 13" fill="none" xmlns="http://www.w3.org/2000/svg">
<path d="M6.17388 0.212543C6.30728 -0.0708476 6.69272 -0.0708476 6.82612 0.212543L8.55299 3.88106C8.60597 3.9936 8.70836 4.0716 8.82682 4.08964L12.6882 4.67792C12.9865 4.72336 13.1056 5.10769 12.8898 5.32828L10.0956 8.18383C10.0099 8.27142 9.97081 8.39763 9.99104 8.52132L10.6507 12.5534C10.7016 12.8649 10.3898 13.1024 10.123 12.9554L6.66923 11.0517C6.56329 10.9933 6.43672 10.9933 6.33077 11.0517L2.87702 12.9554C2.61022 13.1024 2.29839 12.8649 2.34935 12.5534L3.00896 8.52132C3.02919 8.39763 2.99008 8.27142 2.90437 8.18383L0.110222 5.32828C-0.105623 5.10769 0.0134828 4.72336 0.311774 4.67792L4.17319 4.08964C4.29164 4.0716 4.39403 3.9936 4.44701 3.88106L6.17388 0.212543Z" fill="#FCC51D"/>
</svg>
