<svg width="22" height="22" viewBox="0 0 22 22" fill="none" xmlns="http://www.w3.org/2000/svg">
<path d="M11 13.3999L10.3438 14.1545C10.7201 14.4817 11.2799 14.4817 11.6562 14.1545L11 13.3999ZM5.87317 14.2542C6.40445 14.1033 6.71283 13.5503 6.56196 13.0191C6.41108 12.4878 5.85809 12.1794 5.32681 12.3303L5.87317 14.2542ZM16.6732 12.3303C16.1419 12.1794 15.5889 12.4878 15.438 13.0191C15.2872 13.5503 15.5955 14.1033 16.1268 14.2542L16.6732 12.3303ZM14.8 6.09555C14.8 6.64012 14.5847 7.31631 14.1705 8.08156C13.7636 8.83343 13.2085 9.59191 12.6329 10.2801C12.0601 10.9649 11.4845 11.5597 11.0507 11.984C10.8344 12.1955 10.6549 12.3633 10.5307 12.4771C10.4687 12.534 10.4205 12.5773 10.3885 12.6058C10.3726 12.62 10.3607 12.6305 10.3531 12.6372C10.3493 12.6405 10.3466 12.6428 10.3451 12.6442C10.3443 12.6449 10.3438 12.6453 10.3436 12.6455C10.3435 12.6456 10.3434 12.6456 10.3435 12.6456C10.3435 12.6456 10.3436 12.6455 10.3436 12.6455C10.3437 12.6454 10.3438 12.6453 11 13.3999C11.6562 14.1545 11.6563 14.1544 11.6565 14.1542C11.6566 14.1542 11.6568 14.154 11.6569 14.1538C11.6573 14.1536 11.6577 14.1532 11.6581 14.1528C11.6591 14.152 11.6603 14.1509 11.6619 14.1495C11.6649 14.1469 11.6691 14.1432 11.6744 14.1385C11.685 14.1292 11.7001 14.1159 11.7193 14.0988C11.7576 14.0646 11.8126 14.0152 11.8818 13.9518C12.02 13.8251 12.2156 13.6423 12.4493 13.4136C12.9155 12.9575 13.5399 12.3131 14.1671 11.5632C14.7915 10.8166 15.4364 9.94464 15.9295 9.03346C16.4153 8.13567 16.8 7.1162 16.8 6.09555H14.8ZM11 13.3999C11.6562 12.6453 11.6563 12.6454 11.6564 12.6455C11.6564 12.6455 11.6565 12.6456 11.6565 12.6456C11.6565 12.6456 11.6565 12.6456 11.6564 12.6455C11.6562 12.6453 11.6557 12.6449 11.6549 12.6442C11.6533 12.6428 11.6507 12.6405 11.6469 12.6372C11.6393 12.6305 11.6274 12.62 11.6115 12.6058C11.5795 12.5773 11.5313 12.534 11.4693 12.4771C11.345 12.3633 11.1656 12.1955 10.9493 11.984C10.5155 11.5597 9.93986 10.9649 9.36707 10.2801C8.7915 9.59191 8.23636 8.83343 7.82947 8.08156C7.41533 7.31631 7.2 6.64012 7.2 6.09555H5.2C5.2 7.1162 5.58466 8.13567 6.07052 9.03346C6.56363 9.94464 7.20849 10.8166 7.83292 11.5632C8.46013 12.3131 9.08446 12.9575 9.5507 13.4136C9.78443 13.6423 9.97995 13.8251 10.1182 13.9518C10.1874 14.0152 10.2424 14.0646 10.2807 14.0988C10.2999 14.1159 10.3149 14.1292 10.3256 14.1385C10.3309 14.1432 10.3351 14.1469 10.3381 14.1495C10.3396 14.1509 10.3409 14.152 10.3418 14.1528C10.3423 14.1532 10.3427 14.1536 10.343 14.1538C10.3432 14.154 10.3434 14.1542 10.3435 14.1542C10.3437 14.1544 10.3438 14.1545 11 13.3999ZM7.2 6.09555C7.2 4.07511 8.88048 2.3999 11 2.3999V0.399902C7.81758 0.399902 5.2 2.92933 5.2 6.09555H7.2ZM11 2.3999C13.1195 2.3999 14.8 4.07511 14.8 6.09555H16.8C16.8 2.92933 14.1824 0.399902 11 0.399902V2.3999ZM19.6 16.5999C19.6 16.8038 19.505 17.0886 19.1438 17.4445C18.779 17.8038 18.1999 18.1735 17.4036 18.5053C15.8154 19.167 13.5519 19.5999 11 19.5999V21.5999C13.75 21.5999 16.2866 21.1374 18.1728 20.3514C19.1138 19.9593 19.9406 19.467 20.5474 18.8693C21.1577 18.268 21.6 17.5005 21.6 16.5999H19.6ZM11 19.5999C8.44806 19.5999 6.18462 19.167 4.59638 18.5053C3.80008 18.1735 3.22096 17.8038 2.85619 17.4445C2.49495 17.0886 2.39999 16.8038 2.39999 16.5999H0.399994C0.399994 17.5005 0.842295 18.268 1.45263 18.8693C2.05943 19.467 2.8862 19.9593 3.82715 20.3514C5.71343 21.1374 8.25 21.5999 11 21.5999V19.5999ZM2.39999 16.5999C2.39999 16.3489 2.55103 15.9617 3.15974 15.4925C3.75842 15.0311 4.6786 14.5934 5.87317 14.2542L5.32681 12.3303C3.98606 12.711 2.80624 13.2398 1.93876 13.9085C1.08129 14.5694 0.399994 15.476 0.399994 16.5999H2.39999ZM16.1268 14.2542C17.3214 14.5934 18.2416 15.0311 18.8402 15.4925C19.4489 15.9617 19.6 16.3489 19.6 16.5999H21.6C21.6 15.476 20.9187 14.5694 20.0612 13.9085C19.1937 13.2398 18.0139 12.711 16.6732 12.3303L16.1268 14.2542Z" fill="black"/>
</svg>
