<svg width="17" height="27" viewBox="0 0 17 27" fill="none" xmlns="http://www.w3.org/2000/svg">
<path d="M1.4375 13.8916C1.4375 13.6108 1.53857 13.3525 1.75195 13.1504L10.6577 4.43555C10.8486 4.24463 11.0957 4.14355 11.3877 4.14355C11.9717 4.14355 12.4209 4.58154 12.4209 5.16553C12.4209 5.44629 12.2974 5.70459 12.1177 5.89551L3.94189 13.8916L12.1177 21.8877C12.2974 22.0786 12.4209 22.3257 12.4209 22.6177C12.4209 23.2017 11.9717 23.6396 11.3877 23.6396C11.0957 23.6396 10.8486 23.5386 10.6577 23.3364L1.75195 14.6328C1.53857 14.4194 1.4375 14.1724 1.4375 13.8916Z" fill="#020202"/>
</svg>
