<svg width="10" height="10" viewBox="0 0 10 10" fill="none" xmlns="http://www.w3.org/2000/svg">
<path d="M2.688 2.456H3.464V8H2.688V2.456Z" fill="white"/>
<path d="M5.53244 8H4.78844V3.84H5.53244V8ZM5.15644 3.088C5.0231 3.088 4.90844 3.04533 4.81244 2.96C4.72177 2.86933 4.67644 2.74933 4.67644 2.6C4.67644 2.45067 4.72177 2.33333 4.81244 2.248C4.90844 2.15733 5.0231 2.112 5.15644 2.112C5.28977 2.112 5.40177 2.15733 5.49244 2.248C5.58844 2.33333 5.63644 2.45067 5.63644 2.6C5.63644 2.74933 5.58844 2.86933 5.49244 2.96C5.40177 3.04533 5.28977 3.088 5.15644 3.088Z" fill="black"/>
<circle cx="5" cy="5" r="4.5" stroke="black"/>
</svg>
