<svg width="25" height="25" viewBox="0 0 25 25" fill="none" xmlns="http://www.w3.org/2000/svg">
<path d="M9.37502 21.8752C10.5256 21.8752 11.4584 20.9424 11.4584 19.7918C11.4584 18.6412 10.5256 17.7085 9.37502 17.7085C8.22443 17.7085 7.29169 18.6412 7.29169 19.7918C7.29169 20.9424 8.22443 21.8752 9.37502 21.8752Z" stroke="black" stroke-width="2" stroke-linecap="round" stroke-linejoin="round"/>
<path d="M17.7083 21.8752C18.8589 21.8752 19.7917 20.9424 19.7917 19.7918C19.7917 18.6412 18.8589 17.7085 17.7083 17.7085C16.5577 17.7085 15.625 18.6412 15.625 19.7918C15.625 20.9424 16.5577 21.8752 17.7083 21.8752Z" stroke="black" stroke-width="2" stroke-linecap="round" stroke-linejoin="round"/>
<path d="M3.125 3.125H5.20833L7.29167 15.625C7.51638 16.264 7.94265 16.8128 8.50627 17.1885C9.0699 17.5643 9.74036 17.7467 10.4167 17.7083H17.7083C18.3846 17.7467 19.0551 17.5643 19.6187 17.1885C20.1823 16.8128 20.6086 16.264 20.8333 15.625L21.875 8.33333H6.04167" stroke="black" stroke-width="2" stroke-linecap="round" stroke-linejoin="round"/>
</svg>
