<svg width="80" height="30" viewBox="0 0 80 30" fill="none" xmlns="http://www.w3.org/2000/svg">
<path d="M76.7227 10.4773H64.024V7.936H76.7227V2.856H56.4053V15.5547H69.104V18.096H56.4053V23.176H76.7227V10.4773Z" fill="black"/>
<path d="M53.8667 2.856H48.7867V23.1733H53.8667V2.856Z" fill="black"/>
<path d="M25.9307 2.856V7.936H41.168V10.4773H25.9307V23.176H31.008V15.632L38.6293 23.176H46.248L38.2987 15.5547H46.248V2.856H25.9307Z" fill="black"/>
<path d="M10.6907 15.5547H15.7573V10.488H10.6907V15.5547ZM11.9627 11.7467H14.5013V14.2853H11.9627V11.7467Z" fill="black"/>
<path d="M8.152 2.856H3.70667C3.53867 2.85728 3.37786 2.92428 3.25867 3.04267C3.19937 3.10176 3.15234 3.172 3.12031 3.24935C3.08827 3.3267 3.07185 3.40962 3.072 3.49333V22.5387C3.07185 22.6224 3.08827 22.7053 3.12031 22.7827C3.15234 22.86 3.19937 22.9302 3.25867 22.9893C3.37813 23.107 3.539 23.1731 3.70667 23.1733H15.7707V18.1067H8.152V2.856Z" fill="black"/>
<path d="M22.7547 2.856H10.6907V7.936H18.312V15.5547H23.3787V3.49333C23.3802 3.32555 23.3161 3.16381 23.2 3.04267C23.081 2.92563 22.9216 2.8588 22.7547 2.856Z" fill="black"/>
<path d="M23.392 18.096H18.312V29.5253H23.392V18.096Z" fill="black"/>
<path d="M10.16 0H0.634667C0.466559 0.000701921 0.305536 0.0677938 0.186665 0.186665C0.0677938 0.305536 0.000701921 0.466559 0 0.634667V10.16H1.26933V1.89333C1.27281 1.72708 1.34113 1.56878 1.4597 1.4522C1.57827 1.33562 1.73772 1.26999 1.904 1.26933H10.1707L10.16 0Z" fill="black"/>
<path d="M78.7307 16.5067V24.7733C78.73 24.9414 78.6629 25.1025 78.544 25.2213C78.4251 25.3402 78.2641 25.4073 78.096 25.408H69.8293V26.6667H79.3547C79.4388 26.6677 79.5223 26.6521 79.6004 26.6207C79.6785 26.5893 79.7496 26.5428 79.8096 26.4838C79.8696 26.4248 79.9173 26.3545 79.95 26.2769C79.9826 26.1994 79.9997 26.1161 80 26.032V16.5067H78.7307Z" fill="black"/>
</svg>
