<svg width="23" height="22" viewBox="0 0 23 22" fill="none" xmlns="http://www.w3.org/2000/svg">
<path fill-rule="evenodd" clip-rule="evenodd" d="M16.4196 9C16.4196 12.866 13.2856 16 9.41956 16C5.55356 16 2.41956 12.866 2.41956 9C2.41956 5.134 5.55356 2 9.41956 2C13.2856 2 16.4196 5.134 16.4196 9ZM15.0372 16.0318C13.4976 17.2636 11.5446 18 9.41956 18C4.449 18 0.419556 13.9706 0.419556 9C0.419556 4.02944 4.449 0 9.41956 0C14.3901 0 18.4196 4.02944 18.4196 9C18.4196 11.125 17.6832 13.078 16.4514 14.6177L22.1268 20.2928C22.5172 20.6834 22.5172 21.3166 22.1268 21.7072C21.7362 22.0976 21.103 22.0976 20.7124 21.7072L15.0372 16.0318Z" fill="black"/>
</svg>
