<svg width="31" height="31" viewBox="0 0 31 31" fill="none" xmlns="http://www.w3.org/2000/svg">
<path fill-rule="evenodd" clip-rule="evenodd" d="M20.5 13.5C20.5 17.366 17.366 20.5 13.5 20.5C9.634 20.5 6.5 17.366 6.5 13.5C6.5 9.634 9.634 6.5 13.5 6.5C17.366 6.5 20.5 9.634 20.5 13.5ZM19.1177 20.5318C17.578 21.7636 15.625 22.5 13.5 22.5C8.52944 22.5 4.5 18.4706 4.5 13.5C4.5 8.52944 8.52944 4.5 13.5 4.5C18.4706 4.5 22.5 8.52944 22.5 13.5C22.5 15.625 21.7636 17.578 20.5318 19.1177L26.2072 24.7928C26.5976 25.1834 26.5976 25.8166 26.2072 26.2072C25.8166 26.5976 25.1834 26.5976 24.7928 26.2072L19.1177 20.5318Z" fill="black"/>
</svg>
