<svg width="22" height="22" viewBox="0 0 22 22" fill="none" xmlns="http://www.w3.org/2000/svg">
<path d="M3.40953 1C3.22036 1.00771 3.03778 1.07163 2.88511 1.18359C2.73244 1.29554 2.6166 1.45047 2.55239 1.62857L1.11429 5.70476C0.961902 6.14595 0.961902 6.62549 1.11429 7.06667C1.26908 7.5723 1.57823 8.01681 1.99838 8.3379C2.41852 8.65899 2.92862 8.84056 3.45715 8.85715C3.7999 8.84487 4.13689 8.76514 4.44881 8.62252C4.76073 8.4799 5.04148 8.2772 5.27499 8.02599C5.50851 7.77478 5.69022 7.47999 5.80972 7.15851C5.92922 6.83702 5.98417 6.49513 5.97144 6.15238C5.94568 6.843 6.19492 7.51565 6.66451 8.02272C7.13408 8.5298 7.78563 8.82988 8.47618 8.85715C8.81894 8.84487 9.1559 8.76514 9.4679 8.62252C9.7798 8.4799 10.0606 8.2772 10.2941 8.02599C10.5275 7.77478 10.7092 7.47999 10.8288 7.15851C10.9483 6.83702 11.0032 6.49513 10.9905 6.15238C10.9777 6.49513 11.0327 6.83702 11.1522 7.15851C11.2717 7.47999 11.4534 7.77478 11.6869 8.02599C11.9205 8.2772 12.2012 8.4799 12.5131 8.62252C12.825 8.76514 13.162 8.84487 13.5048 8.85715C14.192 8.825 14.8387 8.52278 15.3042 8.01624C15.7697 7.50971 16.0164 6.83985 15.9905 6.15238C15.9778 6.49668 16.0333 6.84009 16.1541 7.16278C16.2748 7.48549 16.4581 7.7811 16.6936 8.03256C16.9291 8.28401 17.2122 8.48634 17.5263 8.62787C17.8404 8.7694 18.1794 8.84732 18.5238 8.85715C19.0556 8.84449 19.57 8.66473 19.9939 8.34336C20.4179 8.02199 20.7299 7.57531 20.8857 7.06667C21.0381 6.62549 21.0381 6.14595 20.8857 5.70476L19.4286 1.62857C19.3644 1.45047 19.2486 1.29554 19.0959 1.18359C18.9431 1.07163 18.7606 1.00771 18.5714 1H3.40953Z" stroke="black" stroke-width="1.5" stroke-linecap="round" stroke-linejoin="round"/>
<path d="M19.5619 8.60986V18.8575C19.5619 19.2364 19.4114 19.5997 19.1435 19.8677C18.8756 20.1356 18.5122 20.286 18.1333 20.286H15.2762" stroke="black" stroke-width="1.5" stroke-linecap="round" stroke-linejoin="round"/>
<path d="M2.65712 8.85693V18.8872C2.65712 19.2581 3.09184 19.6138 3.86578 19.876C4.63973 20.1382 5.68964 20.2855 6.78411 20.2855H15.0381" stroke="black" stroke-width="1.5" stroke-linecap="round" stroke-linejoin="round"/>
</svg>
